/* XPM */
static char *_3e4e6bd303b4554a3a743d1e69b61b73LxvphKN0kXoJIq3[] = {
/* columns rows colors chars-per-pixel */
"64 64 92 1 ",
"  c None",
". c #030302",
"X c #090905",
"o c #070708",
"O c #0A0A09",
"+ c #0E1202",
"@ c #121503",
"# c #161A04",
"$ c #1C1F04",
"% c #15160D",
"& c #18170F",
"* c #16180A",
"= c #1C1E0B",
"- c #0F1010",
"; c #131313",
": c #1A1910",
"> c #201F18",
", c #1F210B",
"< c #1E2212",
"1 c #22230D",
"2 c #242512",
"3 c #252815",
"4 c #292A16",
"5 c #252519",
"6 c #242919",
"7 c #2D2D1B",
"8 c #302F1E",
"9 c #2F301E",
"0 c #31311E",
"q c #353423",
"w c #393626",
"e c #383826",
"r c #353728",
"t c #393728",
"y c #37392B",
"u c #3C3A2C",
"i c #3E3E31",
"p c #413D2F",
"a c #423E31",
"s c #403F38",
"d c #3F4339",
"f c #454134",
"g c #484437",
"h c #46453A",
"j c #4A463A",
"k c #47483D",
"l c #4C493E",
"z c #474A43",
"x c #4E4B42",
"c c #4E4E49",
"v c #514E44",
"b c #514F49",
"n c #4F524B",
"m c #545146",
"M c #54524B",
"N c #59564D",
"B c #5B584F",
"V c #565651",
"C c #585751",
"Z c #5B5A55",
"A c #5D5D5A",
"S c #615E57",
"D c #615F59",
"F c #5F605E",
"G c #646057",
"H c #63625D",
"J c #5F6160",
"K c #636464",
"L c #686661",
"P c #6A6965",
"I c #656768",
"U c #666869",
"Y c #6B6C6B",
"T c #706E6B",
"R c #6F706F",
"E c #72716E",
"W c #6E6F70",
"Q c #6F7071",
"! c #737474",
"~ c #787776",
"^ c #797877",
"/ c #767778",
"( c #777878",
") c #7C7C7C",
"_ c #807F7F",
"` c #80807F",
"' c #7F7F80",
"] c #807F80",
"[ c #7F8080",
"{ c #828282",
"} c #8A8B84",
"| c #8A8A8A",
/* pixels */
"                                                                ",
"                                                                ",
"                                                                ",
"                                                                ",
"                                                                ",
"                                                                ",
"                                                                ",
"                                                                ",
"                                                                ",
"                                                                ",
"                                                                ",
"                                                                ",
"                                                                ",
"                                pj                              ",
"                               UZMm                             ",
"                              YQ!Zg                             ",
"                        YUU  vL{`Ff9u                           ",
"                      ))(WKzaxL)GZVfuf                          ",
"                      !!{QJiumY)mNKVuq                          ",
"                     UU!{WKiiF/)mNJFd1fm    vx                  ",
"                     ZT]]!KVMbY)FVMJk0ufxlvvVVf                 ",
"                    mb~{'WKKZjH)KmkZkuefvmvvZVia                ",
"                   ljb!)YYKNlpVKmjfgfpjD~)EHkiapu               ",
"                   jMP)^IFZvaqjNjcmfpfH~{)QIzamzaf              ",
"                   lF)[(KZnka8pljCFfdx){'YKKvxJAjpe             ",
"                   lVRRYUKAawwalZJFugH)(YAbbZAIKAp0fm           ",
"                   vNKKKUUJu0wpjFMhebR)!KZvxAUUUKu4av           ",
"                  lZKKzN(RKlu2wjxfuZR)QHbACjAUUKKy2pjl          ",
"                 BmJJZub[!KMf,0fffl({[YZxJAjVKIIKf9ial          ",
"                BZKKVu9b'QIIn,4eenY[{)UZxDAjjMKUIvfaap>-        ",
"              mvlCKdrrbP[QIKZq2<cL)))QUZxAAxMAIIIAmhap&O        ",
"          GPTPNMNNx79cE)!YKZci:%A){{YZMcjbZDIUUUIKDlau&O        ",
"          BHUUUKKMpqgL_)PKDlaq46F){)LmllxxS]QIKIIIAhpt:O        ",
"        vmG)))YKNa8eB^`ECmcp01kY){{!ZvAHFJY]QKbAIClwti2XO       ",
"       mjNT{{)KCaq8vP`)PbjapuwD{))(HCMKKDFK!PAbDYNhaau7&Xo      ",
"      ljjD]{)TMf=3gT{`TZjpwfM~]]YUKcZKUZlllxjbK!)CxDxwq5XX      ",
"      fflH|]EBfq7tM~)~ANMgaNY])!IDClvVVxatabMCKW!DMZkqq7Oo      ",
"      ufmP{_Hf09aMH)(HvMKMl!{{!IIClljauaa3iKIIIIKIAvaqq7X.;     ",
"      bST_~BlfffHT^{PmCCMlv~|]!KbZZxapfjjfcI!))LxAFxfat2o.;     ",
"      Q~]TBphblm~}{{FenMlMG~{{QDxbZhahlNSbVI!){HtVFxllt2..O;    ",
"    BT{_!mi7kKmm^~DDv80avP]{{{Lbxxs8hZxK)CMKIKLMfZKZMlf05%..    ",
"    ST~!PvfubKKP_Pjlaq17bT|{_ESjxja2zJMP_HAIIDvlxFUQGlfft5+X&   ",
"   ~Y~UKKvffMU){_Ljlfq=7bT{]~mlllja2fJZP]YIIKAlllZY)Hjljuq2@@*  ",
"  |`!YCMMlfqM)[)Dvgbjq2f!]{^Lllvaap8umAUYYUKbglllMNNlfjjhu2#+@2}",
" |{)YSvlljjjH{)/ZxgmjpfZ]]/PZjbbaaapgbYQWYKAhabbvMNjf0lmgu2#55=R",
"{|{!ZvjjjgN)[{QUUCjjjlH~]!IbljZJapajCY'{{WAjgxJAvZHve1nFfe4,hz,d",
"{{)YMljjjvL{[)YKKMjjfjH`]!KCMbCChpuaCY]{)PClmSYLMKAzq3xZff01dkqn",
"{'YCjjggjH{{(UUKmljjueG~]QIIKPNhlt7aMU'!ICvlT]]~IIDfq9fllgd91yFK",
"(!YVlMVCH~]/PCZCvfenncY~!YIACMxgfq0MPT~LZmljL~~!IUAapzbNvvgq8uVA",
"UIIVmKU!{`)UVajllu4ZUU))YUKvfuaa04e!{_PBljllSLYUKKAuzKIJbblqpffx",
"AmMvvH([{!YUMpfxffzK!)``)WKvlxu809tH)]TBlZHE~EIAxkhcvbMbla7&aCmm",
"mgvmCP{[(UKKcuafwkKY~{{`!PAvvCi4qqaD~_LNvL){{!LbtudZCjhat8&;cUKC",
"jbKQ)){!AKAfpwrq2z){{{{QNxlAAxat7kJ){_DbmE{{!KMhqcJKZlaw=*yY/')Y",
"mA!){{(QFKZfpwqquA{{_!PSbvMMNbhafZQPLHBSH))PUFvfuVKVvsw2+6Z{{'/W",
"UY{{{(YUUKZjpwwaA!{_!DbvvCAvxNjfF()NjlMP{_PMAAxzzZAjau71<n[{'/UI",
"){{{)YUUIAmfpwnAK!_YZbAVljlZCajbJ))MNK~__DmlbVDKKbjawqplP({{!YUU",
"{))!QKCMVvkgjcK!!!YKHZZAClgbvfBYQ)`LY~!EPZCVZAKJZxfepjSY[{)(YUUF",
"{)UIUAfafffamU({{WJIUKNZKMfgfjH{{{{{{`YZmJUUKKIZjjf0jT)]{[(IUUUZ",
"/YCCCntugwaZK(!!!YKCAKxzNxfalLHSR!RHZHPJAKUIZMVbhuuMP_])(!UNFKAM",
"UAllxg0uf8uU!`YKKKHlMJgahgffm_ZfFKKxjxJIIUUKxffjg80~{{QPIIAjZKmm",
"jftuau4497fUHBmkxlxhjljfuut80fr7yufuufllcHVy07878fVHHBvvMbvjvbjj",
"wq7tau454qmYZjgffgfljjljuwq21,=,=127epppfHM2212,1zKMjapahhfhjjaj",
"                                                                ",
"                                                                "
};
