/* XPM */
static char *_e98d2f8f9814a1cdbe6649292fce836OWAqDqDrG3M6WXhz[] = {
/* columns rows colors chars-per-pixel */
"64 64 204 2 ",
"   c None",
".  c #190814",
"X  c #221525",
"o  c #322B2E",
"O  c #3A2D31",
"+  c #342C31",
"@  c #3A3137",
"#  c #2F3138",
"$  c #441A13",
"%  c #521A0A",
"&  c #58281B",
"*  c #662D16",
"=  c #6A3B1F",
"-  c #413436",
";  c #703D20",
":  c #7F451D",
">  c #7D4C2B",
",  c #363843",
"<  c #373D53",
"1  c #4E3D45",
"2  c #364257",
"3  c #394B66",
"4  c #374769",
"5  c #3E526B",
"6  c #54444B",
"7  c #4A4C5C",
"8  c #564C55",
"9  c #5A5356",
"0  c #464448",
"q  c #654E4B",
"w  c #615557",
"e  c #735A53",
"r  c #704B4E",
"t  c #72665F",
"y  c #454D63",
"u  c #4A546C",
"i  c #465877",
"p  c #505361",
"a  c #70596A",
"s  c #4E6279",
"d  c #51657B",
"f  c #766B68",
"g  c #64667C",
"h  c #776D6B",
"j  c #8A5725",
"k  c #A77037",
"l  c #83475A",
"z  c #83485B",
"x  c #805B4B",
"c  c #9A6B57",
"v  c #BA7554",
"b  c #AC6F49",
"n  c #954E64",
"m  c #9A5C6A",
"M  c #865762",
"N  c #A5536F",
"B  c #B35973",
"V  c #88786D",
"C  c #9A7C6B",
"Z  c #88737C",
"A  c #977B74",
"S  c #806F6D",
"D  c #B26870",
"F  c #A46277",
"G  c #C9764E",
"H  c #CA747B",
"J  c #B88233",
"K  c #C38D31",
"L  c #B78B58",
"P  c #938274",
"I  c #A6816C",
"U  c #A58C7B",
"Y  c #BA967A",
"T  c #BA896F",
"R  c #D9875D",
"E  c #D08F52",
"W  c #E1885E",
"Q  c #CB8563",
"!  c #D68C66",
"~  c #DC966C",
"^  c #D39D7B",
"/  c #E5986F",
"(  c #E99A72",
")  c #E08C63",
"_  c #DDA47C",
"`  c #DFA87D",
"'  c #E3A57C",
"]  c #E4A579",
"[  c #455C85",
"{  c #7F5E83",
"}  c #48618C",
"|  c #47608A",
" . c #576B83",
".. c #4A6594",
"X. c #4C6896",
"o. c #4D6A99",
"O. c #476391",
"+. c #526995",
"@. c #526E9D",
"#. c #5F6C90",
"$. c #54719E",
"%. c #5B749D",
"&. c #646984",
"*. c #6A7B9A",
"=. c #70738E",
"-. c #5673A1",
";. c #5976A3",
":. c #5D7AA6",
">. c #5E7CA8",
",. c #617EA9",
"<. c #617CA7",
"1. c #805F83",
"2. c #816084",
"3. c #DD7E85",
"4. c #CD7583",
"5. c #E47F82",
"6. c #6D809F",
"7. c #7D8B9D",
"8. c #6683AD",
"9. c #6886AF",
"0. c #6685B1",
"q. c #6987B0",
"w. c #6C8AB3",
"e. c #718DB5",
"r. c #708FB8",
"t. c #7493B5",
"y. c #7694BB",
"u. c #7896BC",
"i. c #7A99BE",
"p. c #7185A4",
"a. c #7D9DC1",
"s. c #7DA0C4",
"d. c #9B8C86",
"f. c #808290",
"g. c #A08F82",
"h. c #BF8F82",
"j. c #B99A8B",
"k. c #A59596",
"l. c #AB9493",
"z. c #B8A290",
"x. c #8998B4",
"c. c #9DA7B9",
"v. c #AFA6AA",
"b. c #BBABA6",
"n. c #B5B2B4",
"m. c #D98384",
"M. c #CE9B86",
"N. c #ED8383",
"B. c #EB868A",
"V. c #E88588",
"C. c #F48888",
"Z. c #DEA684",
"A. c #C8AD9D",
"S. c #DBB493",
"D. c #D7B094",
"F. c #E2AA83",
"G. c #E8AC85",
"H. c #E4B38C",
"J. c #E6B98F",
"K. c #EDBC94",
"L. c #E6B497",
"P. c #F3B58D",
"I. c #D7BDAA",
"U. c #C1ABA9",
"Y. c #E9BBA2",
"T. c #E3C19E",
"R. c #F3C49C",
"E. c #F7C89F",
"W. c #D4C4B3",
"Q. c #EBC7A9",
"!. c #F6C9A1",
"~. c #F6CCA9",
"^. c #E7CAB5",
"/. c #F3D4BD",
"(. c #F6D4B8",
"). c #F8D1AD",
"_. c #819FC3",
"`. c #83A2C6",
"'. c #8BA2C3",
"]. c #84A4C8",
"[. c #8AA6C8",
"{. c #8CA9CB",
"}. c #94AECD",
"|. c #98ABC7",
" X c #99B2CE",
".X c #9CB5D2",
"XX c #A5B2C7",
"oX c #A8BCD3",
"OX c #B7C4D6",
"+X c #AEC0D6",
"@X c #C5CBD7",
"#X c #CBD2DC",
"$X c #DCD9DB",
"%X c #C0C4CD",
"&X c #E9D5C6",
"*X c #ECDED3",
"=X c #FAE2D0",
"-X c #DCDEE2",
";X c #D4DAE3",
":X c #DCE1E5",
">X c #ECEAEA",
",X c #E4E5E8",
"<X c #F3F3F2",
"1X c #F6EAE1",
/* pixels */
"                                                                                                                                ",
"                                                                                                                                ",
"                                                                <X                                                              ",
"                                                                :X-X                                                            ",
"                                                                 X-X>X                                                          ",
"                                                                r.+X,X                                                          ",
"                                                                  r.oX#X                                                        ",
"                                                                    a..X;X                                                      ",
"                                                                      ].;X                                                      ",
"                                                $ &.u . X i X...         XOX@X                                                  ",
"                                              % $   7 + @ u p y 0       +.x.OX:X                                                ",
"                                                      9 V V P h 8           [.OX%X                                              ",
"                                                    8 t D.R.T.z.t             }.@X                                              ",
"                                                  _ P 9 P S.z.h h             }.,X>X                                            ",
"                                                  ` I V T.E.Q.A.U             e.oX,X                                            ",
"                                                    I Y ).~.(.(.R.              0.oX;X                                          ",
"                                                      C T.E.(.&XK.                ,.'.#X                                        ",
"                                                      L Y H.^.&X                    e.#X>X                                      ",
"                                                  s.2.c R ] P.M.@.                    -X,X,X:X,X                                ",
"                                              i.s.].6.f / W K.U.+.4   #X              $XL.^ h                                   ",
"                                          a.`.].].].t.7.v.l.Z.Y @.<.XX;X    F.(     W.d.Q R l.                                  ",
"                                          `.].].`.].`.].].'.A.S.b.W.&X&XQ.K.G.G.&X=XJ.q v W T                                   ",
"                                          ].].].].].].].].[.W.E.!.!.R.R.Y.^.Y.D.1X=X~ r v G *                                   ",
"                                          i.i.s.`.].].].].'.h.~ ] ! Q T *.XXOX|.*X&X! E     * k                                 ",
"                                          $.-.w.].].].].].`.p e ! r 7 #.X.<.a.'.F.M.=.      % ; L                               ",
"                                          @.<.u.].{.{.].{.i.2 e ' 6 4 8.@.,._.c.c Z @.        & k b                             ",
"                                          e.[.'.e. XoX].}.`.< f Q.9 s '.<._.@Xn., [ o.          : >                             ",
"                                          t.y.y.9.u.`.].{.a.< e J.h g 6.+.e.|.c.7 } o.          & > E                           ",
"                                          -.o.0.u.;.8.].`.a.4 e ( Y.d.< } @.,._.x.%.+.            j J                           ",
"                                          u.>.$.;.@.8.`.].].a.k.( Q.d., [ @.$.,.`.t.@.              > K                         ",
"                                          q.;.X.X.X.:.y.a.t.s.v.( ^.g., [ @.o.$.8.q.w.              & j                         ",
"                                          X.o.o.X.i 5 i  .i  .h c U t # [ ........$.i.                & l.                      ",
"                                            o.@.} , o o o o o + o O o o                                 >X<X                    ",
"                                                  a l z l l z z l m D D                                                         ",
"                                                  n n n n n n n n B H H                                                         ",
"                                                  - O O O O O O O - - -                                                         ",
"                                                  r 8 y 4 4 4 3 3 5 s  .                                                        ",
"                                                  N 2.;.0.0.0.0.0.:.q.`.                                                        ",
"                                                  N 1.>._.].].].a.8.9.s.                                                        ",
"                                                  N 2.>._.].]._.a.>.9.`.                                                        ",
"                                                B r &.u._.,.a._.a.,.0.`.i.                                                      ",
"                                                H 1 s _.a.;.a.[.s.,.q.].`.`.                                                    ",
"                                              m.m.6 d ].u.;.y._._.,.9.].].].`.                                                  ",
"                                              m 3.g %.].u.;.a._._.,.9.].].].a.                                                  ",
"                                            F M w p.a.u.>.-.a.].a.8.9.].].].a.                                                  ",
"                                            4.a 5 t.a.0.o.@.y.].s.>.9.].].].a.                                                  ",
"                                          5.  o.@.r.w.@.@.>.i.'.`.,.0.].].].].`.                                                ",
"                                      N.B.    ..o.:.:.@.-.a._.].a.,.q.].].].].].].a.                                            ",
"                                N.C.C.      O.X.@.r.a.0.;._.].].`.>.0.`.].].].].]._.                                            ",
"                                            X.o.@.a.].w.;.i.].]._.,.0.a.`.].].].]._.                                            ",
"                        V.B.B.B.            X.o.@.u.].r.;.a.].]._.>.@.>.a.].].].]._.                                            ",
"                      3.B.B.V.              X.X.@.u.].w.;.i.].]._.>.o.-.a.].].].`.`.                                            ",
"                      3.V.3.                ..X.$.u.].e.;.a.].]._.>.o.-.a.`.`.].].`.                                            ",
"                                            ..@.@.a.].q.-.a.].].`.>.o.-.a.].].`.`.`.                                            ",
"                                            ..,.y.a.y.;.;.a._.]._.>.o.-.a.].].].`.`.                                            ",
"                                            ..9.`.r.>.@.:.a.].].a.:.:.w._.].].s.w.9.                                            ",
"                                            O.9.i.;.X.:.y.`.`.y.>.$.0.].].].].a.;.@.                                            ",
"                                            X.;.:.@.o.>.`.`.0.;.o.o.0.`.].`.].`.a.u.                                            ",
"                                              Z A &.          X.o.-.8.      k.j.b.b.                                            ",
"                                              ! )               X.:.          / F.H.                                            ",
"                                              Z.'                             F.F.J.&X                                          ",
"                                            _ ' '                             Z.F.F.H.J.                                        ",
"                                                                                                                                ",
"                                                                                                                                "
};
