/* XPM */
static char *_031eab36d6945dcec6c0b209051cc3aUCvBAgMmz2bvn2Vw[] = {
/* columns rows colors chars-per-pixel */
"64 64 221 2 ",
"   c None",
".  c #030303",
"X  c #0C0603",
"o  c #070906",
"O  c #0B0905",
"+  c #070708",
"@  c #070808",
"#  c #0B0B0A",
"$  c #150B05",
"%  c #180E05",
"&  c #0D100C",
"*  c #11180E",
"=  c #0A1813",
"-  c #131313",
";  c #161C12",
":  c #1C1E18",
">  c #100F10",
",  c #331709",
"<  c #2C1C0E",
"1  c #1A2314",
"2  c #1E2817",
"3  c #1F2A18",
"4  c #1B2215",
"5  c #072012",
"6  c #3B240C",
"7  c #212C19",
"8  c #26231E",
"9  c #31250E",
"0  c #322F28",
"q  c #35342C",
"w  c #36372C",
"e  c #3B3530",
"r  c #3C3933",
"t  c #3A3B36",
"y  c #283424",
"u  c #442C13",
"i  c #532B0D",
"p  c #6E3C11",
"a  c #493C2A",
"s  c #463928",
"d  c #423F38",
"f  c #07461F",
"g  c #075229",
"h  c #054F30",
"j  c #046B3D",
"k  c #19633D",
"l  c #056F34",
"z  c #7A5414",
"x  c #7C621A",
"c  c #41413D",
"v  c #42493B",
"b  c #564820",
"n  c #724D2E",
"m  c #447C39",
"M  c #547F30",
"N  c #165E43",
"B  c #0D6744",
"V  c #097844",
"C  c #15794E",
"Z  c #444440",
"A  c #6A7261",
"S  c #A93E1C",
"D  c #8D3D26",
"F  c #894B0B",
"G  c #924F13",
"H  c #A5540B",
"J  c #A9570C",
"K  c #AC510C",
"L  c #9E5220",
"P  c #B35021",
"I  c #A86824",
"U  c #DF571E",
"Y  c #D07016",
"T  c #EC650D",
"R  c #F26E0A",
"E  c #F26D06",
"W  c #E76117",
"Q  c #F37D1C",
"!  c #F27617",
"~  c #ED7615",
"^  c #D74C27",
"/  c #D84E25",
"(  c #D74D29",
")  c #DC5124",
"_  c #D6502D",
"`  c #D9542B",
"'  c #DF5E25",
"]  c #D55633",
"[  c #D75836",
"{  c #DA5A35",
"}  c #D55B3A",
"|  c #DA5B35",
" . c #CF4E29",
".. c #DF612D",
"X. c #DD643C",
"o. c #D57729",
"O. c #E2642D",
"+. c #EA732A",
"@. c #ED7720",
"#. c #E06B3C",
"$. c #ED7932",
"%. c #877050",
"&. c #B07B44",
"*. c #D86846",
"=. c #D3795C",
"-. c #E1774D",
";. c #E16E40",
":. c #048E3E",
">. c #11913E",
",. c #26953D",
"<. c #4E993B",
"1. c #519C3C",
"2. c #6E8D37",
"3. c #75A03A",
"4. c #078A43",
"5. c #149241",
"6. c #258159",
"7. c #398868",
"8. c #629658",
"9. c #54957A",
"0. c #4BA076",
"q. c #8D9633",
"w. c #88A239",
"e. c #ABA437",
"r. c #B1A838",
"t. c #EE8115",
"y. c #FA851B",
"u. c #D1952B",
"i. c #F5892E",
"p. c #F78926",
"a. c #ED8A36",
"s. c #F38636",
"d. c #F58935",
"f. c #F58B3A",
"g. c #F88A37",
"h. c #F8953A",
"j. c #FA902B",
"k. c #D0AE31",
"l. c #E7AC32",
"z. c #A7835A",
"x. c #928475",
"c. c #988A7D",
"v. c #A88C66",
"b. c #A7916F",
"n. c #D69355",
"m. c #F48D41",
"M. c #F49144",
"N. c #F59A49",
"B. c #F99544",
"V. c #F59E56",
"C. c #E78858",
"Z. c #F7A558",
"A. c #D58468",
"S. c #D38D74",
"D. c #CE8E78",
"F. c #E68E66",
"G. c #CFA776",
"H. c #EDA868",
"J. c #F6AD65",
"K. c #F6AD6B",
"L. c #F2A562",
"P. c #F7B16E",
"I. c #EBB779",
"U. c #F7B877",
"Y. c #ECAC7B",
"T. c #939488",
"R. c #A9A99C",
"E. c #B6A999",
"W. c #B4B6AB",
"Q. c #C89D89",
"!. c #E29E84",
"~. c #D3A58E",
"^. c #C9AB9B",
"/. c #D6AB95",
"(. c #CAB19F",
"). c #DDB49B",
"_. c #D3B28B",
"`. c #F6BE84",
"'. c #F1BE8C",
"]. c #E5A086",
"[. c #C6B3A3",
"{. c #CDBCAB",
"}. c #C9B7A6",
"|. c #D1BEAD",
" X c #D3B7A3",
".X c #E6BFA5",
"XX c #96CBAA",
"oX c #F4C38D",
"OX c #FAC88D",
"+X c #EBC693",
"@X c #EFCA96",
"#X c #F7CB96",
"$X c #F6CB95",
"%X c #D6C2AE",
"&X c #D9C3AD",
"*X c #D9C5B1",
"=X c #DBC8B5",
"-X c #DDCDBA",
";X c #D4C1B0",
":X c #DED2BE",
">X c #CCC3AB",
",X c #E4C3AC",
"<X c #E8CBB3",
"1X c #E2D2BA",
"2X c #DDDDCD",
"3X c #DAD6C5",
"4X c #E2D5C2",
"5X c #E5DDCB",
"6X c #E6D9C4",
"7X c #ECE3CC",
"8X c #E4E4D5",
"9X c #EBE6D5",
"0X c #ECEBDB",
"qX c #EAE9D6",
"wX c #F1ECD9",
"eX c #F4F1DD",
"rX c #DCE9E4",
"tX c #EFF1E2",
"yX c #F2F5E5",
"uX c #F3F7E9",
"iX c #F4F9EA",
/* pixels */
"                                                                                                                                ",
"                                                                                                                                ",
"                                                                                                                                ",
"                                                                                                                                ",
"                                                                                                                                ",
"                                                                                                                                ",
"                                                                                                                                ",
"                                                                                                                                ",
"                                                                                                                                ",
"                                                                                                                                ",
"                                                                                                                                ",
"                                                                                                                                ",
"                                                                                                                                ",
"                                                                                                                                ",
"                                                                                                                                ",
"                                                                                                                                ",
"                                                                                                                                ",
"                                                                                                                                ",
"                                                                                                                                ",
"                                                                                                                                ",
"                                                                                                      C B B B   - = j 4.        ",
"                                                                                                      V C 9.9.  g f V           ",
"                                                  X O . O O # X X X O O O O O O O                     V 0.rXXX5.4.4.            ",
"                                            + + , H K J &.b.z.K K H J J L v.b.I H 6 + . + +       V j h N 9.8.e.1.l 5 >         ",
"                                          6 i s n a.j.p.Z.U.U.B.i.Q y.h.Z.P.P.j.~ z a a a a a   y m m k k <.2.r.<.f = -         ",
"                                    + . . p ~ I.@X@XP.d.f.f.B.OX#Xh.y.`.OXj.E y.p.K.+X+X+X+Xb.& 9 u.k.,.<.l.r.>.f #             ",
"                                & u F G %.&.i.Z.K.K.P.K.f.Q f.Z.N.Z.J.F.C.! E N.J.J.K.J.Z.Z.n.G F z x q.q.3.<.:.l               ",
"                                % i t.h.OXU.f.f.s.s.K.#Xa.R i.@.R K.#X*./ T R P.$XV.s.s.Q p.M.h.Y 9 9 u.e.4.:.4.                ",
"                            - u J Y i.d.Z.K.`.h.~ ..;.-.| U ..' U X.-.] ^ U U ;.-.#...O.R ! L.`.I.G.v.b b                       ",
"                            : i t.j.M.f.s.L.'.f.T ^ _ ] ] ] [ [ [ ] ] _ ] ] [ ] _ { [ | W ! L.oXoX$XG.u <                       ",
"                        # 0 R._.a.N.oXU.p.+.{ ` ^ ( =.~.~./..X/.~.~./.Q.Q.,X<X)./..X<X.X#./ | } #.m.f.Y J % O                   ",
"                        . 8 _.`.d.M.Y.H.@.W  .} *.} S.|.{.|.5X-X%X1X4X}.}.0XyX5X4X9XyX7XF.*.} ( ) +.+.! K $ +                   ",
"                        + < o.g.d.$.| ` ) / ` D.(.^. X&X}.E.%X<X<XqX0X{.}.0XuXyXtXyXyXyXwX-XS._ ^ ( ` ) S $ .                   ",
"                        + % p L O.O.^ [ =.A.A.^.|.|.-X5X%X}.:X7X7X7X5X3X3XtXyX2X3X0XyXyXyX8X(.!.!.!.S.D i X +                   ",
"                        # . . , P ( ` *. X;X;X%X|.&X5XtX1X*X0XuXtX1X=X0XuXuXtX{.E.2XwX7XeX5X-XtXuX0XW.8 . . +                   ",
"                        + . . X , n ).,X6X9XqXqX5X&X=X-X*X*X0XuXuXtX0XuXuXiXuX8X8XtX4X%X-X=X-XuX2XA v # . . +                   ",
"                        + . . . + q T.R.7XeXiXiX2Xc.%.T.{.4X7X9X9X9XqX9X0X8X8XW.R.:X3X-X*X&X}.R.T.y 1 . . . +                   ",
"                        . . . . : 1 & d >X2X8X8XR.8 - - T.2X}.[.(.(.(.(.[.[.E.r ; x.:X3X|.}.x.: - 3 1 o . . #                   ",
"                        . . . o 1 7 ; 7 t d c c w : : 1 t v r e w e e e e q 0 8 ; 0 c c r d w 1 1 3 2 o . . .                   ",
"                        . . . @ 2 7 7 4 o . . . # 7 7 7 * . . . . . . . . . . 1 7 & . . . . * 7 3 7 1 o . . O                   ",
"                            . O 7 7 7 7 2 1 2 1 2 7 7 7 2 1 1 2 2 2 2 1 1 2 2 2 7 2 1 1 2 1 2 7 3 7 1 o +                       ",
"                            - & ; ; 7 7 7 7 7 7 7 7 2 7 7 7 2 7 3 7 7 7 7 7 7 7 7 7 7 7 7 7 7 7 3 ; ; O >                       ",
"                                . # 1 1 1 ; 4 1 1 1 ; 1 1 1 1 1 1 1 1 1 1 1 1 ; 1 1 1 1 1 1 1 1 ; o +                           ",
"                                  # . . . . . . . . . . . . . . . . . . . . . . . . . . . . . . #                               ",
"                                      - . . . . . . . . . . . . . . . . . . . . . . . . . . +                                   ",
"                                        # O @ . @ @ . + . + . @ . . . . . . . . . . . . . . #                                   ",
"                                                                                                                                ",
"                                                                                                                                ",
"                                                                                                                                ",
"                                                                                                                                ",
"                                                                                                                                ",
"                                                                                                                                ",
"                                                                                                                                ",
"                                                                                                                                ",
"                                                                                                                                ",
"                                                                                                                                ",
"                                                                                                                                ",
"                                                                                                                                ",
"                                                                                                                                ",
"                                                                                                                                ",
"                                                                                                                                ",
"                                                                                                                                ",
"                                                                                                                                ",
"                                                                                                                                "
};
