/* XPM */
static char *_2206e64adf44d3bf95cb5c5cdc8aa25hewJXRaSE4u4HOyE[] = {
/* columns rows colors chars-per-pixel */
"64 64 233 2 ",
"   c None",
".  c #030303",
"X  c #0C0A05",
"o  c #060708",
"O  c #0B0A0A",
"+  c #070706",
"@  c #110E0C",
"#  c #150D06",
"$  c #04140D",
"%  c #13110B",
"&  c #1A150A",
"*  c #121112",
"=  c #1B1611",
"-  c #1D1914",
";  c #1E181E",
":  c #0A1411",
">  c #23170A",
",  c #331708",
"<  c #341909",
"1  c #351809",
"2  c #261B16",
"3  c #351913",
"4  c #032717",
"5  c #02341D",
"6  c #23201A",
"7  c #28210B",
"8  c #063822",
"9  c #2E232D",
"0  c #2E2531",
"q  c #342535",
"w  c #3C2C3A",
"e  c #372A38",
"r  c #342A36",
"t  c #251C25",
"y  c #451D12",
"u  c #572A13",
"i  c #652A19",
"p  c #663616",
"a  c #7D361F",
"s  c #77391B",
"d  c #43313C",
"f  c #493734",
"g  c #412F3D",
"h  c #06462A",
"j  c #035631",
"k  c #095C35",
"l  c #0A5130",
"z  c #026237",
"x  c #026539",
"c  c #0A6B3B",
"v  c #066839",
"b  c #146639",
"n  c #07733E",
"m  c #246B3B",
"M  c #34563A",
"N  c #734E0B",
"B  c #795B3B",
"V  c #56542A",
"C  c #3D3140",
"Z  c #433544",
"A  c #493A48",
"S  c #523E44",
"D  c #067743",
"F  c #0A6840",
"G  c #357043",
"H  c #55424A",
"J  c #5A454A",
"K  c #4C4352",
"L  c #4A4556",
"P  c #544855",
"I  c #4D424E",
"U  c #644B4D",
"Y  c #624B47",
"T  c #765847",
"R  c #6A4E52",
"E  c #644C52",
"W  c #6D5254",
"Q  c #685555",
"!  c #735753",
"~  c #745953",
"^  c #775B58",
"/  c #6C524B",
"(  c #726D4F",
")  c #565364",
"_  c #5B5768",
"`  c #564E61",
"'  c #685A67",
"]  c #615C72",
"[  c #796769",
"{  c #686678",
"}  c #7B6B75",
"|  c #7B6C77",
" . c #5F7745",
".. c #973E25",
"X. c #863721",
"o. c #8C570C",
"O. c #8A6A0D",
"+. c #926B0E",
"@. c #9B7914",
"#. c #977414",
"$. c #946E10",
"%. c #A97511",
"&. c #9D4426",
"*. c #9E462B",
"=. c #9F482D",
"-. c #A0472C",
";. c #AA4528",
":. c #A0492C",
">. c #A54628",
",. c #886738",
"<. c #917332",
"1. c #A77D38",
"2. c #C65E35",
"3. c #C96037",
"4. c #D07B25",
"5. c #C57518",
"6. c #87654C",
"7. c #896451",
"8. c #856454",
"9. c #9A774E",
"0. c #A37B52",
"q. c #856F6E",
"w. c #815E52",
"e. c #738A30",
"r. c #4D8131",
"t. c #07874B",
"y. c #098D54",
"u. c #0A9859",
"i. c #0BA965",
"p. c #0FB56C",
"a. c #6A8856",
"s. c #A8820F",
"d. c #AA8412",
"f. c #A68212",
"g. c #BB9612",
"h. c #969223",
"j. c #9B9522",
"k. c #9A9D28",
"l. c #8E9228",
"z. c #AF8539",
"x. c #AF8437",
"c. c #B08436",
"v. c #A98F2B",
"b. c #A2A52E",
"n. c #C69118",
"m. c #C89D31",
"M. c #D2932C",
"N. c #E3952B",
"B. c #E4993B",
"V. c #E38F29",
"C. c #CAA131",
"Z. c #D4A934",
"A. c #F5AB3A",
"S. c #F2A936",
"D. c #8C905A",
"F. c #B7884D",
"G. c #A7835C",
"H. c #B48A5D",
"J. c #B38A51",
"K. c #BA9166",
"L. c #A48A76",
"P. c #AF8F6F",
"I. c #B3A46B",
"U. c #CA975C",
"Y. c #E59E46",
"T. c #E69E48",
"R. c #D0A54D",
"E. c #E6AB4B",
"W. c #C69A68",
"Q. c #CB9F70",
"!. c #D5A66A",
"~. c #D0AA70",
"^. c #E7AC64",
"/. c #F9BA68",
"(. c #EDBF7C",
"). c #E9B872",
"_. c #F0BD76",
"`. c #F3C751",
"'. c #FBD565",
"]. c #E9C567",
"[. c #726E84",
"{. c #6D7182",
"}. c #76758B",
"|. c #78768A",
" X c #737187",
".X c #7F8296",
"XX c #7F8199",
"oX c #808397",
"OX c #83859B",
"+X c #898A9E",
"@X c #978688",
"#X c #A59496",
"$X c #AA9B9C",
"%X c #A59698",
"&X c #B89F82",
"*X c #8B8BA2",
"=X c #8E92A8",
"-X c #9694A9",
";X c #989CB2",
":X c #928FA2",
">X c #A29BAE",
",X c #9DA2B8",
"<X c #A5A5B4",
"1X c #BAA186",
"2X c #D2BC96",
"3X c #CCB18A",
"4X c #C4BBBC",
"5X c #EAC895",
"6X c #FBD69C",
"7X c #F7D799",
"8X c #F2CB8C",
"9X c #FADCA5",
"0X c #F7DDAE",
"qX c #F9DEAD",
"wX c #F8D6A2",
"eX c #F8DFB0",
"rX c #F7DFB2",
"tX c #E7CEA6",
"yX c #FBE0AC",
"uX c #FBE2B3",
"iX c #DDC187",
"pX c #AEB8CC",
"aX c #B1BBCE",
"sX c #B3BDD1",
"dX c #A4ACC3",
"fX c #BAC3D4",
"gX c #BBC6D9",
"hX c #C2CCDD",
"jX c #D9D3D4",
"kX c #C8D4E4",
"lX c #ECE9E9",
"zX c #FCFCFC",
"xX c #F0EEEE",
/* pixels */
"                                                                                                                                ",
"                                                                                                                                ",
"                                                                                                                                ",
"                                                                                                                                ",
"                                                                                                                                ",
"                                                                                                                                ",
"                                                                                                                                ",
"                                                                                                                                ",
"                                                                                                                                ",
"                                                                                                                                ",
"                                                                                                                                ",
"                                                            O O                                                                 ",
"                                                            o +                                                                 ",
"                                                            O +                                                                 ",
"      oXoXoXoXoX    oXoXoX                                  + +                                   >X:XoXoXoXoXoXoX              ",
"  +XOXoXoXOX+X:X+XOX.XoXoX                                  + +                                   -X:XoX.X.X.XoXoXoXoXOX+X>X:XOX",
"+XoX.X.X.XoX:X-XOXoXoX.XoX                                  7 7                                   +XoX.X.XoXOX.X.X.X.X.X+X-X+XoX",
"+XOXoXoXOX.XOXOXoXoXoXoXOX                                  g.g.                                  OXoXoXoXOX  +XoX.XoXoXoX+XOXoX",
"                                                        o > n.g.& o                                                             ",
"                                                      @ X # s.O.# + O                                                           ",
"                                                    @ y i i s s i i y X                                                         ",
"                                * @             O % u X.....&.......X.y O O             O O                                     ",
"                                o o             1 y ..;.;.;.;.;.;.;.>.X.y 3           * . o                                     ",
"                                o . . . . + . # a ;.2.3.2.3.3.3.2.2.2.2.>.i X . o o + o . o                                     ",
"                                o X N O.O.O.O.$.n.N.S.A.A.A.A.E.A.A.A.S.N.n.O.O.O.O.+.N . +                                     ",
"                                o X O.d.s.s.s.s.%.s.s.f.f.d.d.d.d.f.d.d.s.d.d.%.d.d.s.N + $                                     ",
"                                O o X % % > & % - - - - - % > & @ = - - - = & & > & & @ + *                                     ",
"                                      0 e z.S e { |..X|.P q ,.,.q ) }.}.}._ 9 ,.,.9                                             ",
"                                      A H R.T A }.,XdXXX_ w F.F.w ] *XdX,X{ w 9.F.g                                             ",
"                                      Z f !.T w Q [ [ ^ P w F.J.w U [ q.[ Q e 0.J.w                                             ",
"                                      Z H ~.~ H Q.).).).G.w K.H.w G.).).).H.d 0.H.C                                             ",
"                                      J E ~.8.Q tXyX0XyX1XJ I.K.S &XqX9XqX3XS P.K.S                                             ",
"                      O o             [ 8.~.9.[ tXuXuXuX3X^ Q.W.^ 3XuXuXuX2X^ P.Q.W               o                             ",
"                      + o             J ! K.^ ! 3X2X2X2XL.Y G.G.J L.2X2X2X&XE 0.0.Y             * . *                           ",
"                      + . o O o o o o O % 2 = * - 6 - 6 ; * = = * - 2 6 2 ; * * = @ O o O O o O o .                             ",
"                      X . > < < < < < < < , 1 1 , < , , , , , , 1 < < , , , < , < < < < < < < < # + *                           ",
"                    o 2 1 u p p p p p p p p p p p p p p p p p p p p p p p p p p p p p p p p p p u y = O                         ",
"                  3 y i a a a a a a a a a a a a a a a a a X.a a a a X.a a a a a a a a a a a s a a X.i 3 2                       ",
"                > y ..&.....*.=.=.=.=.:.:.:.=.=.=.=.=.=.-.-.-.-.*.-.*.*.=.=.:.=.:.:.=.=.&.=.=.&.&.*.*.s > #                     ",
"            O > o.%.4.V.V.V.B.T.Y.Y.Y.T.Y.Y.T.T.T.T.T.T.Y.Y.T.T.Y.Y.B.N.Y.T.T.T.Y.Y.Y.B.V.B.Y.N.V.Y.M.5.%.s X                   ",
"            o # N o.+.$.$.$.#.#.#.#.@.@.@.@.@.@.#.#.@.@.@.@.@.@.@.#.@.@.@.@.@.@.@.@.@.f.@.@.@.@.@.@.$.O.o.p . o                 ",
"            O o X o X X O @ % O + @ % % : % % % * O * * # # @ * % % % O O * * @ O @ : O @ + X @ X X X + + . .                   ",
"                  ; 9 A ] {.{ A 0 ) { ] ) L _ { [.` q A { [.) ` { { ) r ) { { _ L ) { { ) 0 L |  X_ w 9                         ",
"                    Z { ;XpX;X{ A }.+X+X*XXXOX*XOX[.Z ] ;XpX=X*XOXOX[.I [.*X*X*X*X+XOXXX XZ {.dXfX=X` Z                         ",
"                    A [.,XhXdX[.A {.XX=XaXaX;X|.XX[.A [.,XhXsX,XXXOX[.I  XOXOX<XpX,XXXXX XA [.aXgX;X_ A                         ",
"                    A *XsXkXsX|.L XXfXgXkXkXhXgXgX;XP }.sXkXkXhXfXfX;X' <XfXsXkXkXhXfXsX=XL |.hXkXaX{.A                         ",
"                    A -XsXsXpX|.A *XpXpXaXpXaXaXaX;XS |.pXaXaXaXsXfX;X) ;XsXsXsXsXsXfXaX=XP oXaXaXaX|.A                         ",
"                    Z P ] } [ ' P ' } } } } | | q.} W ' [.q.q.q.| | [ E [ | q.[.| | } } ' P ' } ' ] L A                         ",
"                    A Y T 6.6.7.7.7.7.7.7.w.R R R R W W R R J J R R R R R R R R w.7.7.7.7.7.7.7.T T J I                         ",
"                      ^.^.).8X].(.(.(.(._.K.W R R R R R U U d d U U U R R R W ~ W.).(.(.(.(.(.(._.^.^.                          ",
"                      ^./.6XqXqXqXeXeXeX6XU.R R S S S g g q q e g q g S S U R ^ !.9XqXeXqXqXqXeX8X/.U.                          ",
"            o . o . = F./.wXeXqXeXeXeX0X6XW.E S S Z q q q q q q q q q g Z S S ! !.9XeXeXeXrXeXuX8X/.B o . . . :                 ",
"4 * *     h $ . . 4 c G ( 3X9XyXrXqXrXeX6XK.H S Z q e q q q q q q q q q e g A U !.9XqXqXeXeXeX9XI. .G l o . . 4 l     O : h     ",
"8 o .   k j $ . . h i.F l D.iX9XqXrXeXeX6XH.d d q q q q q q q q q q q q q e Z S !.9XeXeXqXqXwX~. .j y.y.$ . . 5 k   * . $ j F   ",
"D $ . . c u.4 . . h i.D k F D.].9XeXeXeX6XJ.e q q q q q q e q q q q q q q q q f W.9XeXeX9XwXiX .b x y.y.$ . . k i.8 . . 4 u.p.  ",
"y.j 4 . h y.F k j k D F F x m D.5X6XeXeX6XH.q q q q q q q q q q q q q q q q q d W.9XrX0X7X2Xa.b z v D D j j x D D 4 . 5 l t.u.  ",
"t.t.j 4 8 n u.i.t.D k z c e.l.b.`.`.'.'.'.Z.v.<.d 9 q q q 9 0 9 q q q q q f <.v.A.'.'.'.`.`.k.l.r.x x x n y.p.y.v 5 5 n n n n   ",
"n t.D c z b D D v z v v m v.C.Z.C.C.C.Z.C.C.Z.v.,.B T T T / T T T T T T B ,.m.C.m.m.m.m.C.v.m.m.e.c v v v c n c k b D t.n c b M ",
"j.k.k.k.h.h.j.h.h.h.h.h.h.T ! ~ ! ! ~ ^ ^ ! ! 6.Z.`.5X5X5X5X5X5X8X5X5X8X`.m.T ~ ~ ~ ~ ~ ~ ~ ~ ~ <.k.j.h.j.j.j.j.h.j.b.k.j.j.j.j.",
"x.c.c.c.c.c.z.z.x.c.x.x.z.~ W Q W W W W W W W ~ z.W.7X7X9XqXuXuXqX9X9X8XF.9.! ! ! R R R W W W W 6.x.z.z.c.c.z.z.1.c.c.c.c.c.c.c.",
"Q ! ! W W W W W W ! W W W W q.$X$X$X$X$X$X@XW R E ( R.Z.].0XuX0XyX].E.z.B / W ! @X$X$X$X$X%X#Xq./ W ! W W W W W W W W W ! ! W W ",
"$X$X$X$X$X$X$X$X$X$X$X$X$X$XjXzXzXzXzXzXzXjX$X#XQ Q ~ T L.0X0XuXyXP.( ~ / [ %X$XlXzXzXzXzXzXzX4X#X#X%X%X#X#X#X#X%X$X$X$X$X$X$X$X",
"zXzXzXzXzXzXzXzXzXzXzXzXzXzXzXzXzXzXzXzXzXzXzXlX@X^ R R L.0XuX0XyXL.E W [ #XxXzXzXzXzXzXzXzXzXzXzXzXzXzXzXzXzXzXzXzXzXzXzXzXzXzX",
"zXzXzXzXzXzXzXzXzXzXzXzXzXzXzXzXzXzXzXzXzXzXzXzXlX%XS R L.0X0XuX0XL.E E 4XxXzXzXzXzXzXzXzXzXzXzXzXzXzXzXzXzXzXzXzXzXzX          "
};
