/* XPM */
static char *e3ab4ef88fe74a50eddaed49d0f93460SA8CD11wwsVTmeRd[] = {
/* columns rows colors chars-per-pixel */
"64 64 229 2 ",
"   c None",
".  c #030404",
"X  c #0C0B0B",
"o  c #090907",
"O  c #120D0A",
"+  c #13110B",
"@  c #1A150B",
"#  c #121313",
"$  c #1D1815",
"%  c #081410",
"&  c #261507",
"*  c #331708",
"=  c #351909",
"-  c #301C16",
";  c #022716",
":  c #02341D",
">  c #312217",
",  c #0D3625",
"<  c #242527",
"1  c #2C2A33",
"2  c #332435",
"3  c #3A2A39",
"4  c #372A38",
"5  c #313234",
"6  c #1D1F22",
"7  c #491E12",
"8  c #492619",
"9  c #642A19",
"0  c #653515",
"q  c #67381B",
"w  c #7D361E",
"e  c #783919",
"r  c #473539",
"t  c #543D36",
"y  c #472D30",
"u  c #713627",
"i  c #044428",
"p  c #075B35",
"a  c #0C5333",
"s  c #06693A",
"d  c #06733E",
"f  c #176539",
"g  c #34563A",
"h  c #58423A",
"j  c #744D39",
"k  c #48703F",
"l  c #3C3842",
"z  c #443544",
"x  c #483C4A",
"c  c #523F44",
"v  c #067842",
"b  c #156C47",
"n  c #2C6F50",
"m  c #48474D",
"M  c #594449",
"N  c #4C4251",
"B  c #4B4957",
"V  c #554B57",
"C  c #55535A",
"Z  c #644C4B",
"A  c #735645",
"S  c #765948",
"D  c #694E52",
"F  c #654D53",
"G  c #6D5255",
"H  c #66555A",
"J  c #745956",
"K  c #725049",
"L  c #776D4D",
"P  c #5C5D6B",
"I  c #585563",
"U  c #685B68",
"Y  c #6A5D6B",
"T  c #567473",
"R  c #62626E",
"E  c #786669",
"W  c #646373",
"Q  c #6B6B7B",
"!  c #686778",
"~  c #7A6A75",
"^  c #786A75",
"/  c #79727D",
"(  c #973D23",
")  c #853A25",
"_  c #83341E",
"`  c #9B7915",
"'  c #997516",
"]  c #8E6E10",
"[  c #A57F0E",
"{  c #9F472C",
"}  c #9C4527",
"|  c #83463A",
" . c #914631",
".. c #A0472B",
"X. c #A2482A",
"o. c #916F32",
"O. c #8F5D51",
"+. c #A05B47",
"@. c #85624E",
"#. c #997744",
"$. c #896451",
"%. c #876653",
"&. c #8B6E54",
"*. c #A8724A",
"=. c #896667",
"-. c #916B6A",
";. c #9E6B61",
":. c #857A77",
">. c #937C74",
",. c #8B766F",
"<. c #078649",
"1. c #0C9758",
"2. c #1A8858",
"3. c #0DAE69",
"4. c #219A69",
"5. c #5F817F",
"6. c #A5800F",
"7. c #999724",
"8. c #959131",
"9. c #A5852C",
"0. c #AF8639",
"q. c #AF8436",
"w. c #B08436",
"e. c #B1982F",
"r. c #9AA529",
"t. c #D09734",
"y. c #E59834",
"u. c #CFA634",
"i. c #CB881E",
"p. c #A88547",
"a. c #B9894C",
"s. c #B98456",
"d. c #AD8955",
"f. c #95886C",
"g. c #A58A6A",
"h. c #BD9562",
"j. c #A48A77",
"k. c #B29371",
"l. c #B2A36E",
"z. c #D49A55",
"x. c #E59D45",
"c. c #D0A64C",
"v. c #E7A654",
"b. c #C69B69",
"n. c #D9A669",
"m. c #DAB277",
"M. c #E9AC60",
"N. c #F9BA68",
"B. c #EDBE7C",
"V. c #ECBA74",
"C. c #ECB56F",
"Z. c #E8C367",
"A. c #EEC646",
"S. c #6E6C81",
"D. c #726E84",
"F. c #697983",
"G. c #737485",
"H. c #767489",
"J. c #7A7C8D",
"K. c #7B7887",
"L. c #7D7F92",
"P. c #847986",
"I. c #7F8295",
"U. c #7E8098",
"Y. c #6E888C",
"T. c #86858D",
"R. c #988887",
"E. c #818396",
"W. c #8B8A93",
"Q. c #848699",
"!. c #86899B",
"~. c #8A8A9D",
"^. c #888595",
"/. c #908D97",
"(. c #9A959C",
"). c #96928B",
"_. c #AB9B9D",
"`. c #A39697",
"'. c #A89683",
"]. c #8D8DA1",
"[. c #8587A0",
"{. c #918EA2",
"}. c #8E91A5",
"|. c #8E94A8",
" X c #9692A5",
".X c #9491A4",
"XX c #9893A7",
"oX c #9B95A9",
"OX c #9999AB",
"+X c #989CB1",
"@X c #A199AD",
"#X c #A49DA0",
"$X c #9DA4BA",
"%X c #9DA2B4",
"&X c #A5A9B9",
"*X c #B0A5A6",
"=X c #BBAD9F",
"-X c #D5BC97",
";X c #C4AF90",
":X c #C6B9AF",
">X c #ECC894",
",X c #F8D69B",
"<X c #F3CD8D",
"1X c #D8C5A8",
"2X c #E7D1AC",
"3X c #F6DDAE",
"4X c #F9DEAE",
"5X c #FADBA4",
"6X c #F8DFB0",
"7X c #F6DCB0",
"8X c #E1CFAE",
"9X c #FAE1B1",
"0X c #FAE0A7",
"qX c #ACB5CA",
"wX c #B1BACE",
"eX c #B4BED2",
"rX c #A3ABC4",
"tX c #BAC3D4",
"yX c #BBC6D8",
"uX c #BFC0CA",
"iX c #C3C3CC",
"pX c #C7CBD6",
"aX c #D4D5DB",
"sX c #C8D4E4",
"dX c #DBDBE0",
"fX c #EBEAEC",
"gX c #FCFCFC",
"hX c #F4F4F5",
"jX c #EFEEF0",
/* pixels */
"                                                                                                                                ",
"                                                                                                                                ",
"                                                                                                                                ",
"                                !.~.[.].      !.Q.!.                                                                            ",
"                    !.    ~.Q.Q.Q.E.Q.[.!.!.Q.E.Q.Q.                                                                            ",
"                    !.!.~.!.!.~.~.E.Q.P.Q.Q.E.Q.                                  !.Q.Q.                                        ",
"                    Q.!.~.~.{.@XoX{.~.Q.Q.Q.!.Q.                              !.{. X~.Q.Q.                                      ",
"                    Q.Q.Q.!.~.~.~.XXoX~..XoX~.!.Q.Q.                          Q.{.@X{.Q.Q.                                      ",
"                    !.!.E.E.Q.E.Q.!.Q.oXoX.X!.Q.E.Q.                            Q.Q.!.Q.Q.                                      ",
"                              !.Q.Q.!.~.~.!.Q.Q.Q.                                    Q.Q.                                      ",
"                                    Q.Q.~.  Q.!.Q.Q.                E.                                                          ",
"                                      Q.        I.          X %     E.E.                                                        ",
"                                                            o m Q.E.E.Q.E.                                                      ",
"                                                            % I !.Q.E.Q.Q.E.                                                    ",
"      E.E.I.E.Q.    I.E.E.                                I./ I.Q.Q.Q.~.~.Q.!.                    @X.XE.Q.I.I.E.E.              ",
"  Q.Q.E.E.E.~..X!.Q.I.I.Q.                              Q.I.I.Q.~.Q.{.OX!.E.Q.                    oX].I.I.I.U.I.E.E.Q.E.~.@X{.Q.",
"].U.I.E.I.E..XXXQ.E.I.I.E.                              ].Q.!.Q.Q.!.XX}.Q.E.Q.                    Q.Q.I.U.Q.Q.E.I.I.I.I.~.oX].E.",
"~.Q.U.E.Q.I.Q.Q.E.E.E.I.Q.                                !.!.~.!.!..X~.!.!.Q.Q.!.!.!.            Q.E.E.E.Q.  !.Q.U.I.E.E.Q.E.E.",
"                                                        6 / W.~.~.Q.Q.!.!.!.~.Q.E.}.                                            ",
"                                                      X o < #.&.m C / G.      !.!.                                              ",
"                                                    O 7 9 9 e e 9 9 8 $                                                         ",
"        E.!.            I.E.I.I.J.m             X O 9 _ ( ( ( ( ( ( _ 8 o o             o #                                     ",
"      I.E.!.Q.Q.Q.    XX~.E.E.I.I.J.B           - 7  .-.-.-.-.-.-.-.-.| t P           < X #                                     ",
"      I.I.Q.!.!.Q.Q.~.oX~.E.E.!.E.E.P < o . . O w X.*.Q.~.Q.Q.!.~.Q.Q.T.Q.~.I.L.L.I.I.J.H.J.                                    ",
"        I.Q.XX~.Q.E.Q.~.!.Q.Q.Q.Q.E.I.f.] ] ] ] i.y.j.Q.Q.E.Q.{.{. X{. X X X{.[.E.!.!.!.!.!.                                    ",
"          ~.oX~.Q.E.Q.].oXQ.E.Q.Q.Q.U.Q.p.6.[ [ 6.6.L I.E.E.E..XXXXX XXX XXX{.Q.Q.!.!.!.J.R                     !.!.            ",
"              E.Q.Q.E.~..XQ.E.E.Q.J.J.G.5 & @ + $ $ 6 5 Q G.I./.].Q.Q.Q.E.Q.[.~.J.J.Q.U.P #                   !.Q.Q.Q.Q.        ",
"                          E.          4 r #.h 3 Q H.J.J.I 4 o.;.R H.}.}.|.L.Y >.&.N H.                        Q.E.~..X!.Q.      ",
"                                      z M z.L S.!.+XqX].! z a.p.4 U }.$X+X! 3 *.p.z                         Q.Q.Q.].oXQ.E.      ",
"                                      x m z.@.J.!.!.!.!.Q.D.k.*.3 V E ,.~ C V >.j.! P.[.Q.E.E.I.I.            Q.Q.~.~.Q.Q.      ",
"                              !.!.!.!.I.I.).I.E.Q.E.Q.E.E.Q.(.g.3 d.V.m.j.J.I.E.~.Q.~.{.].!.E.!.Q.Q.Q.E.I.      E.Q.!.Q.Q.      ",
"                              Q.Q.!.!.Q.!.!.!.!.Q.Q.E.Q.!.!.W.E.Y '.5X1XQ.E.E.Q.!.{.@XXXXX XQ.{..X!.!.Q.Q.I.                    ",
"                      X o     !.!.!.Q.Q.E.OX XQ.XXXX~.~.[.U.~.W.P.;X9X8X}.!.!.Q.Q.!.].OX/.~.~.OX{.Q.Q.Q.Q.Q.I.                  ",
"                    I.W <     I.!.Q.Q.Q.Q.{..X.X{.{.~.OX].H.f.,.H j.-X;XW.~.~.~.!.!.!.!.~.~.~.(.~.Q.!.!.!.].}.                  ",
"                    Q.!.W X o 5 I.Q.Q.!.Q.{.@X].Q.Q.!.}.S.# @ @ O $ $ > < C R T W E.!.E.Q F.Q.I.Q.Q.!.~.~.].                    ",
"                  Q.Q.~.! & = = M ^.!.~.Q.!.{.[.Q.!.Q.U.h * * * * * * * = = 8 = 8 h M t 8 t M h / E.Q.Q.!.                      ",
"            !.  ~.Q.!.~.L.h 0 q 0 A / !.[.L.[.Q.Q.Q.Q.U.j 0 0 9 0 q q q q 0 0 0 q 0 0 0 0 0 0 0 K E.Q C H.                      ",
"            Q.!.!.E.Q.Q.[.%._ _ w w | | =.P.U.Q.=.=.I.P.| w e w w | / P.:.S _ _ w w w w w w w w ) | u = $                       ",
"            E.~.~..X~.Q.!.$.} { X.} } X.+.>.~.^.O.+.;.+.{ ..{ { =.P.!.!.~.P. .X.{ { { { } } X.X.} X.} 0 & @                     ",
"      ~.!.!.!.Q..X@X].!.I.j.y.y.x.x.x.x.x.v.k.b.v.x.x.x.x.x.x.j.Q.!.!.E.!.W.R.z.x.x.x.y.y.y.c.s.s.h.s.*.@.j r R Q.Q.            ",
"  !.!.E.Q.E.Q.{.@XOXQ.Q.~.!.g.9.9.] ' ' ' ` ` ` ' ' ` ` ` ` ` f.!.~.!.!.[.Q.E.9.` ` ` ` ` p.'.}.Q.Q.!.[.Q.!.~.Q.!.Q.Q.!.Q.      ",
"  Q.Q.~.].Q.Q.oX X~.Q.L.! E.I.E.C o + + + + + # O X O + + + X l ! !.!.!.[.U.~.P X + + % X B U.U.Q.Q.Q.Q.!.Q.Q.E.E.I.Q.E.E.      ",
"  !.!.OXXXQ.Q.{.~.E.Q.Q.H.~.!.L.R C Q W I B P ! S.I 2 x ! D.I I Q Q.E.H.L.[.[.H.B I W W ! J.Q.!.!.Q.P.[.{.{.Q.~.!.!.!.E.Q.      ",
"  ~.E.~.!.Q.Q.E.E.U.Q.Q..XqX+X! x G.!.[.[.Q.Q.[.[.S.l ! +XqX|.[.Q.Q.D.N H.[.P.[.[.!.Q.!.!.Q.Q.].{.~.~.~.~.Q.Q.~.XX@X.XQ.!.      ",
"      !.Q.Q.!.  Q.L.D.I.+XsX+XS.x D.L.|.wXwX+XL.E.D.x Q $XpXeX&XQ.Q.D.N H.Q.P.rXwX$XQ.P.[.[.Q.~.~.XXXXQ.Q.E.{.XX].{.!.!.!.      ",
"                    x [.eXsXeXJ.N Q.eXtXsXsXyXeXtX+XV H.eXsXyX+X.XqX%X! %XeXeXsXsXsXeXeX|.U.Q.~.Q.Q.Q.oXXXE.{.XXQ.E.Q.!.!.      ",
"                    x ].wXwXwXP.N [.$X].&XqX+X].}.~.J.U.rXqX%XQ.Q.}.].E.&XeXeXeXwXeXeXeX|.V L.[.Q.Q.!.].~.Q.Q.  !.Q.Q.E.E.      ",
"                    l I Y ^ ^ U M U ^ ^ ^ / Q.[.!.Q.!.Q.Q.I.E.W.Q.Q.E./ ~ ~ :.~ ^ ^ ^ ~ E M U J.E.U.L.L.Q.Q.I.                  ",
"                    z Z A @.$.$.%.%.%.O.$.=.K.Q.!.!.!.~.!.!.Q.E.Q.Q.[.P.E D D G @.%.$.$.@.$.@.>.R.>.H C   Q.I.                  ",
"!.~.~.!.~.            M.M.V.<XZ.Z.B.<XV.m.R.Q.!.!.!.!.Q..X~.~.oX XQ.Q.Q.^ D G J b.V.B.B.B.B.B.B.C.M.n.    Q.~.                  ",
"Q.Q.Q.Q.!.Q.!.        M.N.,X3X3X4X9X4X2X/.E.E.Q.E.E.E.E.XX.X~.oX X~.[.E.F c G J n.5X9X4X4X4X6X6X<XN.z.  Q !.E.                  ",
"Q.E.Q.~.XX~.Q.I.5 . $ a.N.,X6X3X4X7X7X3X:XW.P.I.E.!.H.K.Q.E.!.!.Q.E.Y x x c c K n.5X*X`.2X6X6X7X<XC.o.. 1 W l #                 ",
"Q.Q.!.~.@X{.!.Q.1 ; s k L m.0X9X4X9X3X9X5X'.J.U R W x I J.J.J.E.E.G.3 2 3 z z Z n.5X(.!.1X6X6X,Xk.L n a o . . ; a     X % i     ",
"Y.!.[.[.{.~.Q.I.1 i 3.s a g.-X8X2X4X9X7X,Xg.B z 3 3 4 3 x N x N B z 2 2 2 2 z c b.`.!.Q.(.#X#X(.Y.Y.Y.5.1 o . : p   # . % p b   ",
"4.L.L.L.L.Y.U.I.< i 3.d b Y.Q./.XX2X9X7X,Xs.4 2 2 2 2 2 2 2 2 2 2 2 2 2 2 2 2 r h./.~.!.E.E.!.Q.Q.E.E.Q.!.m . p 3., . . ; 1.3.  ",
"2.f , # a n b b p p <.d b I.!.I.!.=X1X1X1X*.4 1 2 2 2 2 2 2 2 2 2 2 2 2 2 2 2 r h./.!.Q.!.~.!.Q.^.!.!.Q.!.E.n v v ; . : a <.1.  ",
"<.<.a ; i d 1.1.<.n T 5.5.!.!.!.!.Q.!.Q.W.g.&.S.N 2 1 1 2 2 2 2 2 2 1 2 2 h o.9.c.W.Q.U.~.OXoX~.!.OXOXQ.!.Q.Y.2.s ; ; d d d d   ",
"d <.v s p s v v s 5.].!.Q.I.~.].~.~.~.!.~.).j.[.T.S S S A A A A A A A S j o.e.u.u.W.Q.Q.~.OX@X{.!.].~.XX~.I.~.I.T n <.<.d s f g ",
"7.r.r.7.7.7.7.7.8.T.Q.I.Q.!.OX.X XXXXX.X}.Q.Q.E.W.Z.>X>X>X>X>X>X<X>X>X<XA.t.L S J Q.!.[.!.Q.Q.E.~.{.!.].!.Q.Q.Q.U.f.r.r.7.7.7.7.",
"w.w.w.w.9.*.w.q.p.I.!.!.Q.!.XX.X!.!.~..X!.!.!.T.:.h.<X,X5X3X9X9X6X5X0X<Xa.#.G G G G.U.P.Q.Q.E.Q.XX{.Q.!.I.!.Q.Q.I.f.0.0.w.w.w.w.",
"K J G G G G G G G T.Q.!.!.!.!.!.!.E.~.OX!.!.Q.Q.E @.u.u.Z.4X4X3X4XZ.c.e.@.F G J R.#X*X*XW.E././.Q.Q.Q.!.P.H.K.K.^ G D G J J K G ",
"_._._._._._._._._.(.~.].~.!.I.E.!.}.}.aXpXiXOX[.U Z J J j.3X4X9X4Xk.@.S A E `.*XfXgXgXgXaXpXaX&XP.[.Q.[.(.`.`._.`._._._._._._._.",
"gXgXgXgXgXgXgXgXgXhXfXjXhXiX&X&XiXfXjXgXgXgXhXdXR.J D D j.3X9X6X3Xj.F H E `.jXgXgXgXgXgXgXgXgXpX&X.XQ.Q.iXgXgXgXgXhXgXgXhXgXgXgX",
"gXgXgXgXgXgXgXgXgXgXgXgXgXgXgXgXgXgXgXgXgXgXgXgXfX`.M D j.3X7X7X7Xj.F F :XfXgXgXgXgXgXgXgXgXgXgXgXaXpXpXfXgXgXgXgXgXgX          "
};
