/* XPM */
static char *_d9dabea20dc4777b0f5da95a42f9b3bRLnYHZl9OBg0nXbq[] = {
/* columns rows colors chars-per-pixel */
"64 64 223 2 ",
"   c None",
".  c #091604",
"X  c #0B1A05",
"o  c #0D1B09",
"O  c #071701",
"+  c #111E0C",
"@  c #101F06",
"#  c #131D10",
"$  c #0F2005",
"%  c #122506",
"&  c #152A06",
"*  c #13220D",
"=  c #162A09",
"-  c #1A2F0A",
";  c #18290A",
":  c #1A3206",
">  c #1C340A",
",  c #1F3908",
"<  c #1E3907",
"1  c #162411",
"2  c #1A2413",
"3  c #1C2B14",
"4  c #1E2C19",
"5  c #1D3311",
"6  c #223C0A",
"7  c #22370A",
"8  c #232619",
"9  c #252A1B",
"0  c #2A2D1D",
"q  c #252A16",
"w  c #243813",
"e  c #23331A",
"r  c #2A371C",
"t  c #35391B",
"y  c #2A2E20",
"u  c #2C3926",
"i  c #2B3322",
"p  c #323323",
"a  c #363926",
"s  c #3A3927",
"d  c #473828",
"f  c #543C2A",
"g  c #244306",
"h  c #254309",
"j  c #29450C",
"k  c #2C4C0B",
"l  c #2B4E07",
"z  c #2F530B",
"x  c #31550C",
"c  c #355B0C",
"v  c #395F0E",
"b  c #2C4714",
"n  c #354D19",
"m  c #354E17",
"M  c #325211",
"N  c #365A13",
"B  c #3B5915",
"V  c #37620B",
"C  c #39630C",
"Z  c #3D6B0C",
"A  c #3F720A",
"S  c #3C6413",
"D  c #374523",
"F  c #3A4D2B",
"G  c #42740C",
"H  c #447A0C",
"J  c #487C0F",
"K  c #466B19",
"L  c #487913",
"P  c #537A1D",
"I  c #494429",
"U  c #464831",
"Y  c #554335",
"T  c #574338",
"R  c #594439",
"E  c #594B3A",
"W  c #495836",
"Q  c #585B39",
"!  c #4B572A",
"~  c #654D3F",
"^  c #654735",
"/  c #65513F",
"(  c #536438",
")  c #547229",
"_  c #64792E",
"`  c #5E4A43",
"'  c #614E49",
"]  c #695144",
"[  c #695747",
"{  c #735544",
"}  c #745549",
"|  c #755A4C",
" . c #78594C",
".. c #695651",
"X. c #6A5955",
"o. c #7A5E53",
"O. c #5E6B56",
"+. c #587041",
"@. c #75664B",
"#. c #667843",
"$. c #78754B",
"%. c #7A6055",
"&. c #7E7056",
"*. c #626D47",
"=. c #6F786B",
"-. c #896D5B",
";. c #846858",
":. c #88715C",
">. c #926D54",
",. c #A37957",
"<. c #8D6E62",
"1. c #8D7163",
"2. c #957864",
"3. c #906F64",
"4. c #A17D67",
"5. c #4D8B0B",
"6. c #4B830E",
"7. c #4F930A",
"8. c #51910D",
"9. c #5B9C0F",
"0. c #4D8113",
"q. c #538917",
"w. c #5C921C",
"e. c #599813",
"r. c #508C0F",
"t. c #619B1E",
"y. c #59A20D",
"u. c #5EA909",
"i. c #5BA210",
"p. c #63AD0F",
"a. c #62AC11",
"s. c #66A919",
"d. c #69B416",
"f. c #5A8723",
"g. c #639625",
"h. c #6C9729",
"j. c #7A9E33",
"k. c #73B723",
"l. c #7AA23A",
"z. c #70AF25",
"x. c #789845",
"c. c #6D8742",
"v. c #7AA640",
"b. c #84AE36",
"n. c #87BA3D",
"m. c #81AD2E",
"M. c #86C33C",
"N. c #889C5B",
"B. c #8C9255",
"V. c #95BC47",
"C. c #9AB856",
"Z. c #8AB14D",
"A. c #A2B857",
"S. c #978C6D",
"D. c #A7876F",
"F. c #BC8669",
"G. c #A2966C",
"H. c #AC8C77",
"J. c #A68979",
"K. c #A98974",
"L. c #AD927A",
"P. c #AD9E73",
"I. c #BB997D",
"U. c #B48F75",
"Y. c #96A769",
"T. c #9BA675",
"R. c #94A967",
"E. c #A7B979",
"W. c #A8B375",
"Q. c #CB906F",
"!. c #CC9173",
"~. c #CA997B",
"^. c #99C455",
"/. c #93C445",
"(. c #A4CA5A",
"). c #A7CA4D",
"_. c #ADC86D",
"`. c #B8C979",
"'. c #B6C665",
"]. c #C6DC78",
"[. c #8A9287",
"{. c #B79988",
"}. c #AEB093",
"|. c #A8ADA7",
" X c #B6BCB1",
".X c #B0B5AE",
"XX c #C29E89",
"oX c #C4A28B",
"OX c #C9A68C",
"+X c #C9A989",
"@X c #D5A282",
"#X c #D3AC8E",
"$X c #CBAB94",
"%X c #C4A490",
"&X c #D3AE93",
"*X c #D9AD90",
"=X c #D3B39A",
"-X c #DDB99B",
";X c #D8B496",
":X c #E1BB9E",
">X c #E1B799",
",X c #DBBCA2",
"<X c #D7B2A3",
"1X c #D3AEA0",
"2X c #E4BEA1",
"3X c #BCCA86",
"4X c #BDCB91",
"5X c #CFDF87",
"6X c #C5D491",
"7X c #CED59B",
"8X c #D2D79F",
"9X c #CACE98",
"0X c #D5DAA1",
"qX c #E5C1A4",
"wX c #E8C5A8",
"eX c #E9D9B5",
"rX c #F6D4B9",
"tX c #F0CAAE",
"yX c #DAE4A1",
"uX c #C9CDC8",
"iX c #CFD5C6",
"pX c #ECD8C4",
"aX c #EBF2D8",
/* pixels */
"                                                                                                                                ",
"                                                                                                                                ",
"                                                                                                                                ",
"                                                                                                                                ",
"                                                                                                                                ",
"                                                                                                                                ",
"                                                                                                                                ",
"                                                                                                                                ",
"                                                                                                                                ",
"                                                      4     1 *                                                                 ",
"                                                      o 1   < & ;                                                               ",
"                                          D > : > > - X X , 7.V > o X 1                                                         ",
"                                          ( ( ( ( M N W D g 5.Z h = $ o                                                         ",
"                                        e T.8X7X6Xz.z.6XN.N V c c c : X o = > % %                                               ",
"                                      4XT.x.l./.n.q.q.M.(.Y.m k c V > . O 6 k & o                                               ",
"                                    _.3XT.l.h.9.7.V V 7.v.N.n 6 j h % 5 W K H h > w                                             ",
"                                  S b.b.K V.).P c , h c V v c 6 $ X O F 6XM.u.G x > >                                           ",
"                                W N._./.8.h.h.K c k h 6 6 h h & r *.K f.^.g.A C c k w 3                                         ",
"                              * F 7XyX(.p.G c c V c k $ o % % $ +.9X/.p.p.V : x c c j o                                         ",
"                              + U 8X5XZ.H C c c c , = X *     L w.n.w.5.p.H k 7 : k j 6 ; o o 1                                 ",
"                              1 W 0X].j.x x c x x D e * 1     k.d.a.0.H i.J x > = 6 h h ; X o o                                 ",
"                                      n % % % % e  X.X4 X %         s.8.Z C c x k - % *                                         ",
"                                        X o o X y |.|.4 i F         k.e.v c c x k * o #                                         ",
"                                                  y 1 o [.uXi X *       C c x : *                                               ",
"                        o * 1 3                     1 3 =.=.q . o 4     6 , 6 3                   * # * 1                       ",
"                      * $ X $ % 1                       2 # X . X +     o X *                   3 1 * * o 1                     ",
"            S 1 * * 3 x V V c j 6 1 *                       @ @ o                       1 o o u T.G.B.B.K k % o + o 2           ",
"          w.Z = $ % < Z G H G x j % $ 3                     q @ o                       a u e F E.`.'.A.w.C = $ o o 1           ",
"        d.y.G M z H 8.V M c C c c z k > 1 * 2             &X>.t $                 * o 4 |.iXE.C.) t.s.s.i.5.x j > w             ",
"        a.H B x.g.y.y.C M c c c c c M 6 = $ *           :X#XB.I 3                 * $ 5  XaX^.l.e.i.6.x C C c k 6               ",
"q.0.0.0.A f.T.7XM.7.G c c k k c c k M j j > w     P _ oXD.<.U./ s             2 1 : < M T.6Xg.0.a.a.H j x x x x k b 5 1 1 1     ",
"B x c K c.T.4XR.g.G N h 6 > > h k x k j j b       M B $.@. .{.;.              X = O.+.V l.^.v.x.A V k > z C L Z c j = X X X *   ",
"1 $ % ! 9X8XW.K V c z % X O $ & 6 x k j b         7 : : U %.                  $ u uX.XS 9.k.6X}.w O X $ l H u.r.c k : X X o 1   ",
"    $ D 3X5X(.e.8.C j I Y q O o & j k M           k g 6 ! } 0 1                   O.W z x.C.#.W Y q $ h c V A z : = $ o         ",
"    o r `.]./.s.i.C 7 ~ | t X . % 7 l N           M j M Q ] 2 o 2                 $ % b N.W.a 2 ] a % l x z k 7 o X . o         ",
"4 * X 3   _ n h g : o q 9 9       @ % s  . .E 2 1 % t G.2.{                                     q * X & % & % 3   1 X X + *     ",
"4 o o o     o X . o X X o         * + d } { Y + X . a $XH.o.                                    + X X o X X o 2   2 o X X o 2   ",
"                                          a 0           &X+X,.I         qX:XI.i * * * * 1 + * 3                                 ",
"                                          1 *             ;X,.D e       :X>XI.q . X . X X X X *                                 ",
"                                                          -X@X:.:.,XqXqX2XI.;.3 . . X o 2                                       ",
"                                                          2XqXK.H.-X:X:X:XD.] 2 X X X +                                         ",
"                                                          2XqX=XL.2.-.-.-.3.                                                    ",
"                                                          2XqXwXL.^ f d d                                                       ",
"                                                          wXeX{.;.f                                                             ",
"                                                        qXwXeX{. .f                                                             ",
"                                                      qXqXqXwXL.~ q                                                             ",
"                                                      qX-XqX2XH.E o                                                             ",
"                                                  qXqX:XqX:X2XH.E X                                                             ",
"                                                  wXqXqX2X2X2XL.E +                                                             ",
"                                                  G.P.-X2X-XP.@.s o                                                             ",
"                                    e * X         x ) &X2X+XK : . o                                                             ",
"                                  1 5 ; X j N b n $.S.-XL.Q B : o       1                                                       ",
"                                  o > > X j k - b D.oX-X&.$ z : #       #                                                       ",
"                                  X X o . % % o 2 U ` [ s X & o o 1 2 1 . o + # #                                               ",
"                                  a p p 0 0 y 0 y 8 8 y p p u y y 8 8 8 2 8 2 2 8                                               ",
"                              $X$X,X,X=XOX@X%X{.{.J.J.oXOX$X,X{.2.<.2.1.%.%.%.%.%...X.                                          ",
"                              =X-XrXrXtX2XwX2X<X1XXXXX-X2XwXrX=X{.J.J.4.3.3.<.3.<.....                                          ",
"                          XX$XpXpXwX2X2X2X2X:X2X2X&X&X$X=X2XqX:X=X$XJ.<.<.<.<.3.;.....                                          ",
"                          oXXX&X*X@X@X@X@X4.4.@X@X@X~.<.D.~.3.-.-.<.o.] ' ] ' ] ] ' ' E                                         ",
"                          %XoX!.Q.!.!.!.!.{ ~ !.!.!.F.^ >.Q.~ R R f R R R R R R T ' ' Y                                         ",
"                                                                                                                                ",
"                                                                                                                                ",
"                                                                                                                                ",
"                                                                                                                                "
};
